<svg width="26" height="26" viewBox="0 0 26 26" fill="none" xmlns="http://www.w3.org/2000/svg">
<path d="M12.9998 7.58333V3.25H2.1665V22.75H23.8332V7.58333H12.9998ZM6.49984 20.5833H4.33317V18.4167H6.49984V20.5833ZM6.49984 16.25H4.33317V14.0833H6.49984V16.25ZM6.49984 11.9167H4.33317V9.75H6.49984V11.9167ZM6.49984 7.58333H4.33317V5.41667H6.49984V7.58333ZM10.8332 20.5833H8.6665V18.4167H10.8332V20.5833ZM10.8332 16.25H8.6665V14.0833H10.8332V16.25ZM10.8332 11.9167H8.6665V9.75H10.8332V11.9167ZM10.8332 7.58333H8.6665V5.41667H10.8332V7.58333ZM21.6665 20.5833H12.9998V18.4167H15.1665V16.25H12.9998V14.0833H15.1665V11.9167H12.9998V9.75H21.6665V20.5833ZM19.4998 11.9167H17.3332V14.0833H19.4998V11.9167ZM19.4998 16.25H17.3332V18.4167H19.4998V16.25Z" fill="#42A5F5"/>
</svg>
