<svg width="26" height="26" viewBox="0 0 26 26" fill="none" xmlns="http://www.w3.org/2000/svg">
<path d="M21.6666 8.66659H18.4166V4.33325H3.24992C2.05825 4.33325 1.08325 5.30825 1.08325 6.49992V18.4166H3.24992C3.24992 20.2149 4.70159 21.6666 6.49992 21.6666C8.29825 21.6666 9.74992 20.2149 9.74992 18.4166H16.2499C16.2499 20.2149 17.7016 21.6666 19.4999 21.6666C21.2983 21.6666 22.7499 20.2149 22.7499 18.4166H24.9166V12.9999L21.6666 8.66659ZM6.49992 20.0416C5.60075 20.0416 4.87492 19.3158 4.87492 18.4166C4.87492 17.5174 5.60075 16.7916 6.49992 16.7916C7.39909 16.7916 8.12492 17.5174 8.12492 18.4166C8.12492 19.3158 7.39909 20.0416 6.49992 20.0416ZM21.1249 10.2916L23.2483 12.9999H18.4166V10.2916H21.1249ZM19.4999 20.0416C18.6008 20.0416 17.8749 19.3158 17.8749 18.4166C17.8749 17.5174 18.6008 16.7916 19.4999 16.7916C20.3991 16.7916 21.1249 17.5174 21.1249 18.4166C21.1249 19.3158 20.3991 20.0416 19.4999 20.0416Z" fill="#FFBB12"/>
</svg>
